<?xml version="1.0" standalone="no"?>
<!DOCTYPE svg PUBLIC "-//W3C//DTD SVG 20010904//EN"
 "http://www.w3.org/TR/2001/REC-SVG-20010904/DTD/svg10.dtd">
<svg version="1.0" xmlns="http://www.w3.org/2000/svg"
 width="474.000000pt" height="474.000000pt" viewBox="0 0 474.000000 474.000000"
 preserveAspectRatio="xMidYMid meet">

<g transform="translate(0.000000,474.000000) scale(0.100000,-0.100000)"
fill="#000000" stroke="none">
<path d="M2038 4732 c-1 -4 -57 -19 -123 -31 -366 -71 -719 -234 -1015 -470
-88 -70 -289 -269 -363 -359 -270 -331 -473 -810 -512 -1209 -4 -40 -11 -73
-16 -73 -12 0 -12 -405 0 -428 5 -9 16 -69 26 -132 87 -608 411 -1155 910
-1541 319 -246 761 -425 1148 -465 37 -3 67 -10 67 -15 0 -5 97 -9 215 -9 118
0 215 4 215 9 0 4 28 11 63 15 301 33 637 145 907 304 617 364 1038 974 1147
1662 9 60 21 110 25 110 4 0 8 126 8 280 0 166 -4 280 -9 280 -5 0 -13 26 -16
58 -34 276 -161 632 -319 887 -106 173 -203 294 -360 450 -181 181 -327 291
-525 399 -57 31 -106 56 -108 56 -1 0 -27 12 -56 26 -131 64 -435 157 -589
179 -27 4 -48 11 -48 16 0 11 -667 12 -672 1z m634 -68 c159 -22 283 -50 418
-94 1163 -385 1822 -1602 1509 -2788 -119 -451 -391 -878 -751 -1179 -251
-210 -585 -380 -897 -459 -183 -46 -307 -64 -496 -71 -1061 -39 -2020 662
-2300 1681 -63 233 -79 352 -79 616 0 230 6 304 40 470 148 714 617 1312 1272
1622 233 110 437 169 717 207 108 15 446 12 567 -5z"/>
<path d="M2270 4564 c0 -6 20 -52 103 -241 l32 -72 45 -1 45 0 70 147 c39 80
72 150 73 155 2 4 -14 8 -36 8 -39 0 -39 0 -72 -72 -18 -40 -42 -92 -53 -115
-10 -24 -22 -41 -26 -38 -4 2 -29 56 -56 119 l-49 116 -38 0 c-21 0 -38 -3
-38 -6z"/>
<path d="M2011 4544 c-57 -7 -108 -17 -112 -21 -7 -7 25 -302 33 -308 2 -1 68
6 148 16 80 10 148 18 153 19 4 0 7 10 7 21 0 21 -3 22 -72 15 -40 -3 -94 -9
-119 -12 l-47 -6 -7 40 c-8 49 -2 62 30 62 13 0 58 5 100 11 65 10 75 14 75
31 0 19 -4 20 -87 13 -49 -3 -98 -9 -110 -12 -21 -5 -23 -2 -23 36 0 23 1 41
3 42 1 0 48 6 105 14 57 7 106 15 109 18 3 4 3 13 0 22 -8 18 -39 18 -186 -1z"/>
<path d="M2706 4385 c-84 -106 -106 -139 -95 -146 26 -17 59 -9 87 20 l27 30
79 -17 c80 -17 90 -25 100 -73 5 -21 13 -28 42 -34 20 -3 38 -4 40 -2 2 2 0
17 -5 33 -5 16 -26 90 -46 164 -21 74 -40 138 -44 142 -3 3 -22 9 -41 13 l-35
6 -109 -136z m153 -10 c7 -31 10 -59 8 -62 -7 -7 -78 6 -96 17 -11 6 -6 19 23
59 21 28 41 49 45 47 4 -3 13 -30 20 -61z"/>
<path d="M3110 4298 c-89 -186 -84 -166 -49 -184 17 -8 32 -14 32 -12 1 2 21
43 45 92 24 49 47 85 51 80 5 -5 15 -40 24 -79 8 -38 21 -94 27 -123 11 -46
17 -56 46 -70 19 -8 36 -13 39 -11 2 3 34 66 69 140 65 134 65 134 44 152 -11
9 -24 17 -29 17 -5 0 -29 -41 -55 -91 -28 -56 -49 -88 -55 -82 -8 8 -41 140
-56 226 -5 25 -44 57 -71 57 -5 0 -33 -51 -62 -112z"/>
<path d="M1093 4163 l-31 -28 23 -155 c13 -85 24 -163 24 -173 1 -18 3 -18 34
2 29 19 32 24 29 64 -4 44 -3 44 62 91 35 25 70 46 76 46 6 0 24 -7 41 -15 27
-14 32 -14 59 2 17 9 29 22 27 27 -3 8 -294 165 -307 166 -3 0 -20 -12 -37
-27z m113 -89 c24 -14 44 -29 44 -33 0 -12 -88 -72 -93 -64 -3 5 -8 34 -12 66
-9 67 -4 69 61 31z"/>
<path d="M2116 4134 c-252 -39 -471 -121 -683 -255 -125 -79 -180 -123 -302
-242 -264 -259 -422 -556 -503 -942 -19 -95 -22 -139 -22 -320 1 -187 4 -224
27 -336 62 -296 181 -552 361 -778 60 -75 245 -255 309 -300 101 -72 229 -148
322 -191 560 -263 1220 -213 1730 131 142 96 230 173 335 291 273 307 414 640
451 1062 34 380 -87 816 -314 1137 -291 410 -715 671 -1208 743 -130 19 -379
19 -503 0z m574 -49 c202 -37 454 -138 628 -251 167 -110 327 -260 441 -414
92 -125 106 -148 164 -265 131 -265 179 -477 179 -785 0 -160 -3 -202 -25
-310 -28 -133 -58 -236 -102 -347 -32 -78 -74 -166 -85 -173 -4 -3 -10 -15
-14 -27 -4 -13 -12 -23 -17 -23 -5 0 -9 -5 -9 -12 0 -15 -40 -75 -109 -163
-68 -86 -77 -95 -91 -95 -6 0 -9 -4 -6 -9 8 -12 -51 -71 -70 -71 -8 0 -13 -5
-12 -11 3 -10 -51 -59 -161 -148 -55 -44 -107 -72 -117 -63 -4 4 -5 2 -1 -3 6
-11 -128 -91 -170 -101 -13 -4 -23 -10 -23 -14 0 -5 -26 -16 -57 -26 -32 -9
-63 -21 -69 -26 -7 -5 -25 -11 -40 -13 -16 -2 -49 -11 -74 -19 -76 -25 -123
-37 -160 -39 -19 -1 -37 -5 -40 -9 -3 -3 -39 -9 -80 -12 -41 -3 -106 -9 -145
-12 -70 -5 -306 17 -395 37 -25 6 -60 13 -77 16 -18 3 -31 9 -28 14 3 4 -3 6
-14 4 -24 -4 -62 5 -57 14 2 3 -9 7 -26 8 -16 1 -55 14 -86 29 -32 15 -66 29
-76 31 -23 4 -123 60 -131 74 -4 5 -13 9 -21 9 -22 0 -85 45 -76 55 4 5 1 5
-5 1 -18 -10 -164 101 -157 119 4 10 0 12 -17 8 -15 -4 -20 -3 -15 5 4 7 1 12
-7 12 -17 0 -78 65 -70 74 4 3 -3 6 -14 6 -25 0 -47 25 -37 41 4 7 3 9 -3 6
-5 -3 -25 12 -44 34 -19 22 -32 41 -29 42 3 1 -10 18 -29 37 -50 53 -93 119
-85 132 4 6 3 8 -3 5 -11 -7 -43 34 -47 58 -1 7 -10 20 -19 30 -11 10 -15 25
-12 36 4 12 2 19 -7 19 -13 0 -38 44 -38 67 0 7 -4 13 -10 13 -5 0 -12 16 -16
35 -3 19 -10 37 -14 40 -5 3 -6 15 -3 28 4 18 3 19 -7 7 -10 -12 -11 -11 -7 8
3 12 2 22 -3 22 -9 0 -31 81 -24 92 3 4 1 8 -5 8 -6 0 -8 7 -5 15 4 8 2 15 -4
15 -11 0 -23 55 -24 111 -1 19 -5 37 -10 40 -18 12 -27 253 -16 432 5 88 10
112 25 124 10 8 13 12 7 9 -6 -3 -11 6 -11 24 0 16 4 27 9 24 4 -3 5 1 2 9 -3
8 0 35 7 58 7 24 13 49 14 54 7 45 19 74 28 68 6 -4 8 2 5 15 -4 12 -2 22 4
22 5 0 6 4 3 10 -13 20 166 379 194 388 6 2 11 9 11 16 0 41 297 365 321 351
7 -5 10 -4 5 3 -12 20 193 157 344 230 162 79 352 137 535 162 98 14 427 5
535 -15z"/>
<path d="M2184 4029 c-3 -6 -19 -9 -35 -5 -41 8 -42 -5 -5 -45 35 -36 53 -99
30 -99 -11 0 -34 -56 -34 -84 0 -16 -131 -155 -176 -188 l-44 -31 118 -120
c64 -66 127 -129 140 -140 12 -11 22 -26 22 -32 0 -19 -58 -68 -73 -62 -8 3
-41 42 -73 87 -33 45 -68 94 -79 110 -11 15 -37 53 -57 84 -21 31 -43 56 -49
56 -6 0 -42 -10 -81 -21 -63 -19 -108 -49 -108 -71 0 -5 -11 -13 -25 -18 -16
-6 -25 -17 -25 -32 0 -12 -9 -40 -20 -63 -11 -23 -22 -57 -24 -76 -2 -19 -4
-37 -5 -41 0 -5 -7 -8 -13 -8 -7 0 -21 -14 -30 -31 -25 -42 -57 -36 -84 16
-11 22 -29 41 -40 43 -10 2 -36 10 -58 20 -36 15 -39 15 -52 -3 -8 -10 -17
-16 -20 -12 -4 4 -2 13 5 21 9 11 8 15 -4 20 -25 9 -17 23 16 30 27 5 30 9 25
28 -3 13 -6 32 -6 43 -1 47 -16 50 -68 11 -70 -51 -132 -127 -139 -171 -5 -28
-1 -41 16 -59 20 -21 21 -27 9 -45 -11 -19 -9 -24 20 -50 36 -34 43 -71 13
-71 -11 0 -23 -9 -27 -22 -8 -28 23 -54 123 -104 47 -23 79 -46 90 -65 10 -16
21 -29 25 -29 5 0 24 -33 42 -72 19 -40 52 -91 75 -113 22 -22 40 -48 41 -58
0 -10 7 -20 15 -23 8 -4 15 -16 15 -28 0 -11 7 -29 14 -38 12 -17 14 -17 36 2
13 11 27 20 31 20 4 0 14 6 21 13 7 6 33 26 58 42 24 17 104 72 178 123 73 50
135 92 138 92 9 0 44 -65 44 -83 0 -13 -36 -35 -137 -83 -76 -36 -186 -88
-244 -116 l-105 -50 28 -60 c52 -108 54 -95 -67 -368 -23 -52 -57 -129 -75
-170 -17 -41 -43 -99 -56 -128 -35 -76 -32 -89 19 -103 38 -11 260 -13 477 -6
61 2 65 1 68 -21 2 -13 10 -26 18 -29 8 -3 14 -12 14 -19 0 -8 7 -17 15 -20 8
-4 15 -12 15 -19 0 -8 14 -24 30 -37 47 -36 100 -88 100 -98 0 -5 21 -22 47
-37 26 -15 57 -33 68 -40 11 -7 31 -17 44 -23 13 -6 37 -22 53 -35 16 -14 42
-28 56 -32 15 -3 59 -23 98 -45 39 -21 78 -38 85 -38 7 0 27 -13 44 -29 16
-16 53 -41 80 -56 63 -34 65 -36 71 -71 3 -16 9 -31 15 -32 5 -2 15 -9 22 -16
6 -7 20 -15 30 -19 9 -3 22 -18 29 -32 6 -14 19 -25 29 -25 10 0 21 -5 25 -11
9 -16 91 -3 111 17 9 9 17 32 18 51 0 28 7 38 29 50 24 13 27 19 22 48 -5 24
-3 34 9 39 8 3 15 11 15 18 0 15 89 98 106 98 21 0 26 34 8 47 -10 7 -22 13
-27 13 -5 0 -4 7 4 16 10 13 10 17 -2 25 -8 5 -17 9 -20 9 -3 0 -15 14 -28 31
-21 29 -22 31 -6 56 16 24 16 26 -6 49 -20 22 -21 26 -8 51 14 29 24 42 59 81
22 24 26 47 10 57 -6 4 -8 15 -5 25 3 10 1 21 -5 25 -6 4 -5 16 5 35 8 16 15
48 15 71 0 25 8 55 20 75 21 33 21 33 2 71 l-20 38 49 190 50 190 -26 20 c-14
12 -25 26 -25 33 0 8 -19 12 -59 12 -32 0 -74 2 -92 5 -29 4 -30 3 -9 -4 14
-5 51 -9 82 -10 31 -1 59 -4 61 -8 3 -5 -6 -44 -18 -88 -13 -44 -39 -145 -60
-225 -20 -80 -43 -165 -50 -190 -7 -25 -28 -103 -46 -173 l-33 -129 -65 7
c-36 4 -109 18 -161 32 -52 14 -126 34 -165 44 -97 26 -252 34 -350 19 -105
-16 -117 -15 -160 14 -58 40 -132 60 -210 58 -258 -6 -525 -6 -531 1 -4 4 57
157 136 340 79 182 154 357 166 387 l23 55 113 7 c62 4 142 11 178 17 36 6
103 11 150 12 47 1 74 4 60 6 -30 6 -40 19 -40 55 0 17 -5 27 -12 25 -7 -1
-14 8 -16 21 l-3 22 180 0 c138 0 181 -3 181 -12 0 -9 3 -10 8 -2 4 6 14 14
22 17 8 3 -87 6 -212 6 l-228 1 0 29 c0 36 12 44 59 43 l36 -1 -30 13 c-41 17
-85 71 -87 104 -3 54 4 77 44 149 22 41 46 95 52 120 l12 46 33 -62 c22 -42
30 -68 26 -84 -4 -12 18 16 49 62 50 76 62 107 57 149 -3 22 7 13 37 -30 28
-43 62 -122 62 -146 0 -7 -12 -38 -26 -68 -14 -31 -24 -57 -22 -60 3 -2 19 26
37 64 39 82 108 163 122 141 8 -13 13 -6 10 14 -1 4 19 22 44 39 l45 32 -37
33 -38 32 66 68 c82 84 221 228 250 259 l21 22 -25 17 c-23 15 -27 15 -59 -1
-33 -15 -37 -15 -75 5 -37 18 -42 19 -54 5 -24 -29 -75 -43 -114 -33 -20 6
-43 8 -53 5 -21 -6 -56 19 -47 34 9 14 -14 82 -26 74 -16 -10 -50 7 -48 24 3
21 -21 72 -34 72 -8 0 -3 -121 8 -220 2 -14 6 -81 10 -148 l8 -122 -53 0 -53
0 7 123 c4 67 10 163 14 212 11 156 10 179 -13 189 -21 9 -45 48 -45 72 0 7
-16 22 -35 34 -19 12 -35 26 -35 31 0 5 -8 9 -17 9 -10 0 -27 7 -37 15 -24 18
-33 19 -42 4z m-584 -934 c14 -2 54 -7 90 -10 109 -9 283 -26 318 -31 25 -4
32 -9 28 -22 -3 -9 -8 -34 -12 -55 -5 -29 -10 -36 -23 -32 -29 9 -175 47 -211
55 -19 5 -71 18 -115 30 -44 11 -123 32 -175 46 -52 14 -99 27 -105 29 -12 5
169 -4 205 -10z m340 -285 c0 -5 -4 -10 -10 -10 -5 0 -10 5 -10 10 0 6 5 10
10 10 6 0 10 -4 10 -10z m1190 -1489 c0 -6 -4 -13 -10 -16 -5 -3 -10 1 -10 9
0 9 5 16 10 16 6 0 10 -4 10 -9z m45 -27 c14 -9 25 -23 25 -30 0 -8 3 -13 8
-12 4 2 17 -4 29 -13 15 -11 19 -19 12 -29 -7 -13 -9 -13 -9 1 0 11 -9 15 -35
13 -19 -2 -35 1 -35 6 0 6 -6 10 -12 10 -15 0 -36 41 -30 58 5 16 18 15 47 -4z
m45 -106 c0 -13 -23 -5 -28 10 -2 7 2 10 12 6 9 -3 16 -11 16 -16z m-233 -304
c-3 -3 -12 -4 -19 -1 -8 3 -5 6 6 6 11 1 17 -2 13 -5z"/>
<path d="M3023 3595 c-7 -8 -13 -17 -13 -20 0 -5 -91 -135 -111 -159 -5 -6
-36 -48 -68 -92 -58 -80 -59 -82 -32 -82 14 0 44 4 66 10 22 6 50 12 62 12 13
1 28 9 35 18 20 25 84 27 102 3 8 -11 18 -17 22 -13 4 4 13 3 19 -2 9 -8 14
-6 19 6 4 10 -7 32 -29 58 -30 36 -39 42 -65 38 -16 -2 -30 -1 -30 3 0 4 25
45 55 91 30 47 55 88 55 92 0 10 -56 52 -67 52 -4 -1 -14 -7 -20 -15z"/>
<path d="M2642 3075 c0 -16 2 -22 5 -12 2 9 2 23 0 30 -3 6 -5 -1 -5 -18z"/>
<path d="M2661 2965 c0 -5 6 -21 14 -35 8 -14 14 -20 14 -15 0 6 -6 21 -14 35
-8 14 -14 21 -14 15z"/>
<path d="M2682 2870 c0 -19 2 -27 5 -17 2 9 2 25 0 35 -3 9 -5 1 -5 -18z"/>
<path d="M2471 2874 c0 -11 3 -14 6 -6 3 7 2 16 -1 19 -3 4 -6 -2 -5 -13z"/>
<path d="M2301 2864 c0 -11 3 -14 6 -6 3 7 2 16 -1 19 -3 4 -6 -2 -5 -13z"/>
<path d="M2467 2820 c3 -19 12 -44 19 -56 8 -11 11 -24 7 -27 -3 -4 1 -7 11
-7 15 0 15 2 -1 27 -10 15 -23 43 -30 62 l-12 36 6 -35z"/>
<path d="M2340 2740 c0 -5 7 -10 16 -10 8 0 12 5 9 10 -3 6 -10 10 -16 10 -5
0 -9 -4 -9 -10z"/>
<path d="M2615 2740 c-3 -5 -1 -10 4 -10 6 0 11 5 11 10 0 6 -2 10 -4 10 -3 0
-8 -4 -11 -10z"/>
<path d="M2642 2700 c0 -14 2 -19 5 -12 2 6 2 18 0 25 -3 6 -5 1 -5 -13z"/>
<path d="M2549 2500 c-2 -69 -10 -78 -46 -53 -15 11 -38 25 -50 32 -41 21 -24
5 27 -27 29 -18 50 -39 50 -49 1 -16 2 -16 10 -2 5 9 26 20 46 24 30 5 34 8
21 18 -8 7 -25 28 -36 47 -20 33 -21 34 -22 10z"/>
<path d="M2688 2453 c7 -3 16 -2 19 1 4 3 -2 6 -13 5 -11 0 -14 -3 -6 -6z"/>
<path d="M2858 2453 c7 -3 16 -2 19 1 4 3 -2 6 -13 5 -11 0 -14 -3 -6 -6z"/>
<path d="M2239 2415 c47 -9 91 -25 123 -45 56 -34 77 -35 28 0 -40 29 -141 60
-188 59 -27 -1 -16 -5 37 -14z"/>
<path d="M2994 2414 c33 -18 134 -54 150 -54 6 1 -29 16 -79 35 -99 38 -115
42 -71 19z"/>
<path d="M2044 2414 c-6 -3 -53 -9 -105 -14 l-94 -9 100 5 c92 4 202 22 135
22 -14 0 -30 -2 -36 -4z"/>
<path d="M2226 2385 c70 -12 124 -34 157 -63 9 -8 20 -12 23 -9 4 3 -15 19
-41 36 -49 31 -123 52 -178 50 -19 0 -4 -6 39 -14z"/>
<path d="M2038 2385 c-3 -3 -50 -10 -104 -15 l-99 -9 105 5 c58 2 119 8 135
13 l30 9 -31 1 c-17 1 -33 -1 -36 -4z"/>
<path d="M2218 2356 c41 -8 97 -28 129 -47 32 -17 52 -25 44 -16 -26 32 -114
67 -181 72 l-65 5 73 -14z"/>
<path d="M2725 2359 c-59 -6 -148 -29 -142 -36 2 -2 32 4 67 13 41 10 92 15
146 12 46 -1 80 0 76 3 -12 11 -85 15 -147 8z"/>
<path d="M2028 2355 c-3 -3 -50 -10 -104 -15 l-99 -9 100 4 c97 4 196 22 134
24 -14 1 -28 -1 -31 -4z"/>
<path d="M2186 2331 c70 -12 122 -30 169 -59 34 -21 37 -22 22 -4 -28 31 -110
62 -179 67 -62 4 -62 4 -12 -4z"/>
<path d="M2020 2324 c-8 -3 -58 -9 -110 -14 l-95 -9 100 4 c55 3 114 9 130 14
29 9 7 13 -25 5z"/>
<path d="M2665 2323 c-65 -15 -96 -25 -92 -29 3 -3 33 2 68 11 45 12 91 16
153 13 49 -2 80 -1 70 3 -21 8 -166 10 -199 2z"/>
<path d="M2945 2320 c11 -17 165 -60 213 -59 44 1 42 2 -20 10 -37 5 -97 20
-133 34 -36 13 -63 20 -60 15z"/>
<path d="M2175 2300 c73 -11 136 -33 176 -60 16 -12 29 -17 29 -11 0 5 -28 24
-63 41 -46 22 -80 31 -132 35 l-70 4 60 -9z"/>
<path d="M2014 2294 c-7 -3 -56 -9 -110 -14 l-99 -9 100 4 c55 3 114 9 130 14
19 6 23 9 10 9 -11 0 -25 -2 -31 -4z"/>
<path d="M2635 2291 c-17 -4 -40 -13 -50 -20 -18 -11 -18 -12 -1 -7 68 22 117
28 196 24 50 -2 84 -1 77 4 -15 9 -181 9 -222 -1z"/>
<path d="M2935 2293 c21 -22 133 -55 200 -58 l70 -4 -68 9 c-58 9 -103 22
-192 55 -14 5 -17 5 -10 -2z"/>
<path d="M2195 2264 c53 -10 97 -25 129 -45 27 -16 51 -28 53 -25 8 7 -85 57
-134 72 -25 8 -65 14 -87 13 -32 -1 -24 -4 39 -15z"/>
<path d="M2004 2264 c-7 -3 -56 -9 -110 -14 l-99 -9 100 4 c55 3 114 9 130 14
19 6 23 9 10 9 -11 0 -25 -2 -31 -4z"/>
<path d="M2632 2262 c-13 -4 33 -7 101 -7 69 0 120 3 114 7 -14 9 -183 9 -215
0z"/>
<path d="M2933 2257 c26 -22 166 -57 218 -56 39 1 37 2 -21 10 -36 5 -90 17
-120 28 -104 36 -97 35 -77 18z"/>
<path d="M2150 2240 c82 -11 133 -27 175 -56 20 -14 39 -23 42 -20 3 2 -12 16
-34 30 -45 30 -141 57 -198 55 -37 -2 -35 -2 15 -9z"/>
<path d="M2565 2240 c-13 -6 -15 -9 -5 -9 8 0 22 4 30 9 18 12 2 12 -25 0z"/>
<path d="M1945 2228 c-33 -5 -81 -7 -108 -6 -26 2 -47 -1 -47 -6 0 -12 197 -1
230 13 32 12 10 12 -75 -1z"/>
<path d="M2605 2229 c-22 -5 -44 -15 -50 -21 -7 -8 -5 -9 9 -4 60 21 116 28
196 24 50 -2 84 -1 77 4 -16 10 -182 8 -232 -3z"/>
<path d="M2916 2231 c20 -18 142 -52 204 -56 l65 -5 -80 14 c-44 7 -105 23
-135 35 -61 23 -68 25 -54 12z"/>
<path d="M2115 2214 c78 -9 145 -28 193 -55 61 -34 70 -30 12 6 -48 31 -139
56 -195 54 -31 -2 -33 -3 -10 -5z"/>
<path d="M1940 2198 c-30 -5 -81 -8 -112 -6 -34 3 -55 0 -51 -5 7 -12 200 -2
234 12 20 8 21 10 4 9 -11 0 -45 -5 -75 -10z"/>
<path d="M2590 2198 c-19 -5 -39 -14 -45 -19 -5 -5 6 -4 25 3 21 8 82 13 152
13 64 0 111 3 105 8 -16 10 -193 6 -237 -5z"/>
<path d="M2913 2199 c40 -23 133 -49 196 -54 l66 -5 -76 14 c-43 8 -102 23
-133 35 -61 23 -82 27 -53 10z"/>
<path d="M2145 2179 c47 -6 93 -20 140 -44 60 -30 66 -31 40 -10 -39 33 -144
65 -204 64 -40 -1 -37 -3 24 -10z"/>
<path d="M1940 2168 c-25 -5 -76 -7 -114 -5 -50 3 -64 2 -51 -6 20 -11 172 -3
220 12 39 12 5 12 -55 -1z"/>
<path d="M2602 2172 c-13 -4 33 -7 101 -7 69 0 120 3 114 7 -14 9 -183 9 -215
0z"/>
<path d="M2900 2170 c30 -20 137 -48 205 -54 l70 -5 -80 14 c-44 7 -107 23
-139 34 -65 23 -79 26 -56 11z"/>
<path d="M2105 2153 c58 -5 156 -33 185 -53 37 -25 50 -32 50 -26 0 3 -18 17
-39 31 -48 32 -131 55 -191 53 l-45 -1 40 -4z"/>
<path d="M2536 2151 c-4 -5 3 -7 14 -4 23 6 26 13 6 13 -8 0 -17 -4 -20 -9z"/>
<path d="M1915 2139 c-33 -5 -85 -7 -115 -4 -46 4 -51 3 -30 -6 28 -12 165 -6
215 10 37 11 11 11 -70 0z"/>
<path d="M2577 2140 c-21 -4 -43 -12 -48 -17 -6 -6 14 -4 43 4 34 9 87 13 150
11 53 -2 92 0 85 4 -15 10 -178 8 -230 -2z"/>
<path d="M2918 2130 c46 -21 177 -51 214 -49 13 1 -12 7 -54 15 -43 8 -101 23
-128 34 -64 25 -89 25 -32 0z"/>
<path d="M2115 2120 c75 -8 128 -26 180 -58 27 -17 35 -19 26 -8 -33 39 -144
77 -221 75 -42 -2 -41 -2 15 -9z"/>
<path d="M1910 2109 c-30 -5 -82 -7 -115 -5 -50 4 -55 3 -30 -5 33 -11 180 -4
217 10 20 8 20 10 3 9 -11 0 -45 -4 -75 -9z"/>
<path d="M2553 2107 c-24 -5 -43 -13 -43 -17 0 -4 24 -1 53 7 32 9 88 13 149
11 53 -2 91 0 85 4 -17 11 -195 7 -244 -5z"/>
<path d="M2870 2117 c0 -12 159 -56 221 -61 l64 -5 -55 10 c-46 8 -108 25
-212 56 -10 3 -18 3 -18 0z"/>
<path d="M2115 2090 c78 -11 112 -23 168 -57 20 -13 37 -19 37 -14 0 5 -28 24
-63 41 -49 24 -80 32 -138 35 l-74 4 70 -9z"/>
<path d="M1905 2079 c-27 -5 -81 -7 -120 -5 -56 4 -64 3 -40 -5 35 -12 198 -4
223 11 21 12 8 12 -63 -1z"/>
<path d="M2542 2078 c-24 -5 -41 -12 -38 -15 3 -3 32 0 65 7 35 7 96 11 145 8
47 -2 83 -1 80 4 -7 11 -199 8 -252 -4z"/>
<path d="M2860 2085 c0 -10 168 -54 225 -59 40 -3 51 -2 35 3 -14 5 -39 9 -57
10 -18 1 -67 12 -110 26 -81 26 -93 28 -93 20z"/>
<path d="M2108 2060 c48 -6 95 -20 133 -40 69 -35 87 -39 44 -10 -55 38 -99
51 -175 55 l-75 4 73 -9z"/>
<path d="M1900 2050 c-30 -4 -86 -6 -125 -4 -64 3 -67 3 -30 -7 44 -12 188 -4
214 11 9 5 12 9 6 8 -5 0 -35 -4 -65 -8z"/>
<path d="M2530 2044 l-45 -13 45 7 c25 4 93 7 152 7 58 0 101 3 95 7 -20 13
-199 7 -247 -8z"/>
<path d="M2851 2056 c12 -12 172 -55 223 -60 82 -9 67 1 -23 15 -40 6 -98 19
-129 30 -52 18 -80 24 -71 15z"/>
<path d="M2100 2030 c50 -6 95 -20 134 -40 33 -17 61 -28 64 -25 3 2 -25 19
-62 36 -52 25 -84 33 -139 35 l-72 3 75 -9z"/>
<path d="M1895 2019 c-27 -4 -84 -6 -125 -4 -69 4 -71 4 -30 -6 48 -10 188 -3
211 12 16 10 15 10 -56 -2z"/>
<path d="M2590 2024 c58 -7 187 -8 177 -2 -7 4 -55 7 -107 6 -52 0 -84 -2 -70
-4z"/>
<path d="M2850 2025 c0 -2 35 -15 78 -28 83 -26 208 -45 182 -27 -8 5 -34 10
-56 10 -23 0 -76 11 -118 25 -81 26 -86 28 -86 20z"/>
<path d="M2495 2010 l-20 -9 20 1 c11 0 31 4 45 8 l25 8 -25 0 c-14 0 -34 -3
-45 -8z"/>
<path d="M2070 2001 c83 -10 136 -26 179 -51 37 -23 55 -21 19 2 -49 31 -116
50 -188 53 l-75 4 65 -8z"/>
<path d="M1880 1990 c-30 -4 -86 -6 -125 -5 l-70 4 55 -9 c61 -9 198 -2 206
11 3 5 2 8 -3 8 -4 -1 -33 -5 -63 -9z"/>
<path d="M2512 1988 c-66 -15 -43 -21 27 -7 33 6 99 10 146 7 47 -2 80 -1 73
4 -18 11 -193 8 -246 -4z"/>
<path d="M2869 1984 c65 -29 267 -66 230 -43 -8 5 -30 9 -50 9 -19 0 -73 11
-119 25 -93 28 -111 30 -61 9z"/>
<path d="M2060 1970 c82 -9 136 -24 179 -50 18 -12 35 -19 38 -16 9 8 -82 55
-127 65 -25 6 -70 10 -100 9 l-55 -1 65 -7z"/>
<path d="M1875 1959 c-27 -4 -84 -6 -125 -4 l-75 4 60 -9 c63 -10 169 -4 195
11 17 9 15 9 -55 -2z"/>
<path d="M2495 1955 l-40 -14 40 7 c22 4 90 7 152 7 61 0 106 3 100 7 -20 13
-210 7 -252 -7z"/>
<path d="M2841 1960 c42 -25 286 -73 248 -49 -8 5 -28 9 -45 9 -18 0 -71 11
-118 25 -92 27 -110 30 -85 15z"/>
<path d="M2063 1939 c51 -5 98 -18 135 -36 31 -15 61 -29 66 -31 5 -3 6 0 3 5
-9 14 -86 50 -132 62 -22 6 -65 10 -95 10 -52 -2 -50 -2 23 -10z"/>
<path d="M1790 1930 l-125 -5 85 -7 c78 -7 162 1 177 16 4 3 2 5 -3 4 -5 -1
-65 -5 -134 -8z"/>
<path d="M2492 1928 c-24 -5 -42 -12 -39 -14 2 -2 28 1 57 7 29 6 95 9 146 7
52 -2 88 0 81 4 -17 11 -192 8 -245 -4z"/>
<path d="M2831 1930 c8 -5 51 -18 95 -29 90 -22 191 -36 159 -22 -11 5 -34 10
-51 10 -17 1 -68 12 -114 26 -87 26 -116 31 -89 15z"/>
<path d="M2052 1910 c53 -5 97 -17 143 -38 65 -31 83 -27 22 5 -50 26 -127 43
-187 41 -51 -1 -50 -1 22 -8z"/>
<path d="M1655 1903 c12 -13 125 -23 125 -11 0 4 -22 8 -49 8 -27 0 -58 3 -68
6 -12 5 -15 4 -8 -3z"/>
<path d="M1855 1902 c-27 -2 -54 -8 -60 -13 -9 -9 104 -2 114 7 8 8 -5 9 -54
6z"/>
<path d="M2475 1895 l-40 -13 45 6 c25 4 93 7 152 7 58 0 104 3 101 8 -7 12
-215 6 -258 -8z"/>
<path d="M2857 1891 c46 -17 93 -28 191 -45 18 -3 32 -1 32 4 0 6 -17 10 -38
10 -21 0 -72 9 -113 21 -103 28 -134 33 -72 10z"/>
<path d="M2005 1884 c91 -9 163 -27 205 -52 26 -14 40 -19 32 -10 -27 33 -114
61 -197 64 -44 1 -62 0 -40 -2z"/>
<path d="M1643 1874 c21 -21 257 -25 257 -4 0 4 -24 3 -52 -1 -49 -8 -129 -5
-188 7 -14 3 -21 2 -17 -2z"/>
<path d="M2472 1870 c-48 -11 -54 -23 -7 -13 22 4 91 8 153 8 61 0 112 3 112
8 0 9 -215 7 -258 -3z"/>
<path d="M2820 1870 c62 -27 281 -71 250 -50 -8 5 -27 10 -41 10 -14 0 -61 9
-105 21 -43 12 -90 23 -104 25 l-25 4 25 -10z"/>
<path d="M2030 1850 c80 -9 141 -27 187 -57 23 -15 26 -15 15 -1 -26 32 -113
61 -197 64 l-80 3 75 -9z"/>
<path d="M1631 1846 c14 -15 136 -25 199 -17 63 8 62 9 -45 10 -60 1 -121 4
-135 8 -14 3 -22 3 -19 -1z"/>
<path d="M2467 1840 c-20 -4 -41 -10 -45 -14 -4 -4 11 -4 33 1 22 4 92 8 157
8 64 0 111 3 105 7 -15 10 -199 8 -250 -2z"/>
<path d="M2790 1847 c0 -8 149 -46 217 -55 34 -5 60 -5 57 0 -3 4 -20 8 -38 8
-18 0 -68 9 -112 21 -107 29 -124 32 -124 26z"/>
<path d="M2030 1820 c62 -7 100 -17 142 -39 32 -16 58 -26 58 -22 0 5 -28 21
-62 36 -49 22 -81 29 -143 31 l-80 3 85 -9z"/>
<path d="M2780 1820 c0 -4 10 -10 23 -13 12 -3 58 -14 102 -25 99 -25 155 -33
155 -23 0 5 -28 11 -63 15 -34 3 -97 17 -140 30 -42 13 -77 20 -77 16z"/>
<path d="M1638 1809 c37 -14 242 -15 242 -1 0 4 -58 7 -129 7 -72 0 -122 -3
-113 -6z"/>
<path d="M2452 1810 c-48 -11 -54 -23 -7 -13 22 4 92 8 157 8 64 0 111 3 105
7 -16 10 -212 8 -255 -2z"/>
<path d="M2019 1790 c60 -6 102 -17 143 -38 32 -16 58 -25 58 -21 0 4 -26 20
-57 35 -45 21 -75 27 -142 30 l-86 3 84 -9z"/>
<path d="M2777 1789 c18 -18 279 -76 269 -60 -3 5 -29 11 -58 14 -29 4 -91 18
-137 31 -46 13 -79 20 -74 15z"/>
<path d="M1612 1785 c12 -12 150 -23 208 -15 48 6 43 7 -46 9 -56 0 -117 4
-135 7 -19 4 -31 4 -27 -1z"/>
<path d="M2442 1780 c-47 -11 -52 -20 -6 -12 22 4 89 7 151 7 61 0 109 3 106
8 -6 9 -208 7 -251 -3z"/>
<path d="M2766 1761 c20 -21 291 -80 279 -61 -2 4 -31 10 -63 14 -33 4 -95 18
-138 31 -90 28 -91 28 -78 16z"/>
<path d="M2432 1750 c-18 -4 -36 -11 -39 -14 -4 -3 9 -3 28 1 19 5 87 8 152 8
64 0 117 3 117 8 0 9 -215 7 -258 -3z"/>
<path d="M781 1724 c0 -11 3 -14 6 -6 3 7 2 16 -1 19 -3 4 -6 -2 -5 -13z"/>
<path d="M2755 1733 c24 -24 292 -83 279 -61 -3 4 -18 8 -33 8 -26 0 -186 38
-236 56 -13 5 -17 4 -10 -3z"/>
<path d="M2430 1723 c-19 -3 -39 -8 -44 -13 -6 -6 7 -6 30 -2 21 4 89 7 151 7
61 0 109 3 106 8 -4 7 -179 7 -243 0z"/>
<path d="M2746 1702 c21 -19 274 -76 274 -62 0 4 -25 11 -56 15 -31 4 -93 18
-137 31 -89 27 -95 28 -81 16z"/>
<path d="M3533 4121 c-44 -20 -78 -64 -88 -112 -17 -76 52 -176 158 -229 83
-42 105 -39 145 16 18 24 31 48 28 52 -3 5 -32 29 -65 55 -56 44 -61 46 -76
30 -16 -15 -14 -18 22 -49 36 -31 37 -34 21 -50 -15 -15 -23 -16 -55 -6 -21 6
-54 28 -73 47 -29 30 -35 44 -35 78 1 77 65 134 135 120 42 -8 98 -63 106
-102 5 -21 16 -37 35 -46 37 -20 39 -19 39 11 0 41 -29 92 -74 128 -87 71
-156 88 -223 57z"/>
<path d="M850 3965 c-26 -28 -27 -25 52 -110 25 -27 66 -71 90 -97 l43 -47 28
25 29 25 -38 42 c-57 64 -174 187 -177 187 -2 0 -14 -11 -27 -25z"/>
<path d="M3848 3753 l-117 -96 31 -43 c17 -24 38 -51 47 -61 9 -10 38 -46 66
-80 46 -57 51 -61 67 -47 16 15 12 22 -53 102 -38 47 -69 88 -69 92 0 3 13 19
30 35 29 28 30 28 51 9 12 -10 42 -45 66 -77 42 -54 71 -69 80 -41 3 8 -61 99
-87 124 -31 30 -33 41 -10 65 13 14 28 25 34 25 6 0 35 -32 65 -70 75 -96 85
-105 101 -86 10 13 9 20 -6 40 -11 13 -41 52 -68 87 -57 74 -97 119 -105 118
-3 0 -59 -43 -123 -96z"/>
<path d="M715 3804 c-40 -21 -62 -41 -95 -89 -52 -76 -45 -141 17 -157 39 -10
63 0 147 66 63 50 77 54 96 31 31 -37 -30 -122 -95 -132 -35 -5 -74 -34 -75
-55 0 -4 15 -10 34 -13 62 -12 141 47 190 142 46 91 -23 176 -107 131 -12 -6
-51 -33 -86 -60 -35 -26 -70 -48 -77 -48 -24 0 -26 39 -4 75 22 36 45 49 96
54 12 1 48 50 42 56 -13 13 -58 13 -83 -1z"/>
<path d="M416 3386 c-36 -68 -66 -128 -68 -135 -3 -10 59 -47 209 -123 34 -18
64 -30 66 -27 13 13 137 254 137 265 0 10 -30 29 -35 22 -1 -2 -23 -43 -49
-93 -27 -49 -52 -94 -57 -100 -11 -11 -79 22 -79 39 0 5 20 49 45 97 38 73 42
88 29 93 -27 11 -30 8 -75 -79 -24 -47 -49 -85 -56 -85 -8 0 -25 7 -39 16
l-24 17 51 94 c40 76 48 97 38 109 -6 8 -15 14 -19 14 -5 0 -38 -56 -74 -124z"/>
<path d="M4100 3429 c-63 -34 -122 -65 -130 -69 -12 -8 -4 -30 48 -134 35 -70
66 -126 70 -126 4 0 14 5 22 10 14 9 -3 50 -77 190 -2 3 49 32 112 65 70 37
115 66 115 75 -1 18 -24 50 -36 50 -5 -1 -61 -28 -124 -61z"/>
<path d="M4244 3098 l-142 -50 11 -34 c6 -19 14 -34 18 -34 13 0 283 92 291
99 8 7 -18 71 -29 70 -4 0 -72 -23 -149 -51z"/>
<path d="M530 2968 c-35 -124 -31 -120 -88 -102 -116 36 -196 54 -203 47 -4
-4 -11 -20 -14 -35 -7 -26 -5 -27 67 -48 40 -12 84 -25 98 -30 59 -19 121 -32
127 -27 11 12 82 260 77 268 -3 5 -13 9 -23 9 -13 0 -23 -19 -41 -82z"/>
<path d="M4274 2946 c-53 -24 -88 -79 -92 -150 -3 -52 0 -69 25 -116 28 -54
82 -98 103 -85 5 3 10 22 10 41 0 26 -4 34 -18 34 -48 0 -86 91 -62 149 24 60
135 82 186 38 35 -30 47 -123 19 -150 -13 -13 -15 -23 -7 -45 12 -36 34 -39
54 -5 27 46 31 96 14 156 -35 120 -133 176 -232 133z"/>
<path d="M334 2628 c-8 -99 -9 -92 14 -96 16 -3 21 5 26 43 8 50 28 67 53 43
24 -24 28 -92 8 -143 -25 -67 -80 -90 -153 -64 -75 26 -91 142 -29 208 19 19
24 33 20 54 -3 15 -12 27 -19 27 -20 0 -53 -36 -70 -76 -18 -44 -21 -148 -5
-196 17 -52 70 -95 125 -103 128 -20 219 120 188 286 -6 35 -17 68 -24 75 -7
6 -39 15 -70 19 l-57 6 -7 -83z"/>
<path d="M4230 2512 c0 -35 4 -43 35 -61 l35 -20 0 -85 0 -86 -40 -20 c-35
-18 -40 -25 -40 -55 0 -22 5 -35 13 -35 6 0 77 33 157 73 l145 72 0 48 0 48
-152 80 -153 80 0 -39z m190 -137 c28 -14 50 -27 50 -30 0 -6 -68 -40 -97 -49
-22 -7 -23 -5 -23 48 0 32 4 56 10 56 6 0 33 -11 60 -25z"/>
<path d="M280 2243 c-92 -7 -110 -12 -110 -36 0 -47 9 -49 141 -42 177 9 179
10 179 51 l0 34 -82 -2 c-46 -1 -103 -3 -128 -5z"/>
<path d="M995 919 c-129 -162 -119 -142 -83 -169 l31 -23 19 26 c10 14 26 35
36 47 l18 22 50 -39 c67 -54 86 -63 132 -63 78 0 113 84 62 147 -25 29 -161
146 -177 150 -4 1 -44 -43 -88 -98z m173 -28 c49 -45 57 -85 18 -102 -26 -12
-57 1 -110 45 l-29 24 28 36 c15 20 32 36 39 36 6 0 30 -17 54 -39z"/>
<path d="M3496 886 l-30 -23 34 -159 c44 -212 39 -201 75 -164 26 27 28 32 17
66 -12 39 -18 30 76 108 50 41 52 42 94 20 29 -15 32 -15 56 3 14 11 27 24 29
29 2 5 -27 22 -64 38 -38 16 -107 47 -154 68 -48 21 -91 38 -95 38 -5 0 -22
-11 -38 -24z m114 -81 c28 -14 50 -29 50 -33 0 -7 -75 -72 -84 -72 -5 0 -14
30 -32 103 -8 34 2 34 66 2z"/>
<path d="M1323 642 c-85 -160 -95 -135 82 -227 97 -51 117 -58 125 -45 5 8 10
17 10 20 0 3 -42 27 -92 54 -51 27 -97 52 -101 56 -12 10 24 80 41 80 8 0 48
-18 89 -40 82 -44 98 -47 106 -26 7 18 -3 26 -78 64 -98 49 -100 53 -81 90 9
18 19 32 22 32 2 0 48 -23 100 -51 77 -41 98 -49 105 -38 16 26 22 22 -174
127 -43 23 -79 42 -80 42 -1 0 -35 -62 -74 -138z"/>
<path d="M3258 724 l-26 -14 41 -90 c22 -49 38 -93 34 -96 -4 -4 -59 19 -122
50 -109 54 -118 57 -151 46 -41 -14 -43 -7 32 -165 30 -63 54 -120 54 -125 0
-14 33 -12 54 3 16 12 14 19 -23 102 -22 50 -36 91 -31 93 5 2 59 -22 120 -53
106 -53 113 -55 146 -43 19 6 34 18 34 25 0 8 -14 44 -31 81 -18 37 -44 95
-60 128 -15 34 -31 64 -36 67 -4 3 -20 -1 -35 -9z"/>
<path d="M1711 460 c-24 -83 -41 -153 -38 -156 2 -2 18 -9 35 -14 l31 -8 17
60 c10 33 23 62 30 65 7 2 27 -3 44 -12 24 -12 40 -35 65 -90 19 -40 37 -75
42 -78 4 -3 25 -8 46 -12 l39 -8 -36 71 c-20 39 -40 73 -46 77 -19 12 1 25 39
25 44 0 68 21 77 68 10 52 -32 82 -168 122 -62 18 -118 35 -124 37 -6 2 -28
-58 -53 -147z m182 60 c35 -11 70 -27 77 -35 19 -23 -2 -65 -32 -65 -30 0
-129 27 -139 37 -9 9 10 83 22 83 4 0 36 -9 72 -20z"/>
<path d="M2718 538 c-15 -12 -112 -328 -103 -336 1 -2 18 1 36 5 26 7 35 17
46 49 7 22 19 41 26 41 7 0 45 6 85 12 71 13 73 12 92 -11 11 -12 19 -26 20
-30 0 -11 52 -10 70 1 14 9 -17 54 -170 248 -27 36 -72 44 -102 21z m87 -113
c21 -31 35 -58 32 -61 -2 -3 -30 -8 -60 -11 l-55 -6 13 49 c13 50 25 84 29 84
2 0 20 -25 41 -55z"/>
<path d="M2160 381 c0 -124 1 -129 26 -154 43 -44 153 -59 223 -31 61 24 70
47 78 184 l6 120 -26 2 c-15 0 -33 1 -39 2 -10 1 -14 -31 -18 -117 -5 -112 -7
-120 -30 -139 -33 -26 -106 -19 -133 14 -17 20 -18 34 -12 135 l7 113 -41 0
-41 0 0 -129z"/>
</g>
</svg>
